<svg width="123" height="123" viewBox="0 0 123 123" fill="none" xmlns="http://www.w3.org/2000/svg">
<g clip-path="url(#clip0_6203_5)">
<path fill-rule="evenodd" clip-rule="evenodd" d="M22.63 12.6H115.93C122.03 12.6 121.7 15.07 121.17 21.37L117.7 65.6C117.11 72.65 117.61 70.94 110.14 72.01L41.52 80.74L45.15 91.27C74.92 91.27 89.31 91.27 119.06 91.27C120.06 95.01 121.42 101.1 122.42 105.27H110.14L108.96 101.01C84.16 101.01 74.71 101.01 49.9 101.01C36.35 100.78 37.71 104.45 34.46 92.74L11.18 8.11H0V0H19.61C20.52 3.41 21.78 9.15 22.63 12.6ZM53.69 103.92C58.92 103.92 63.17 108.17 63.17 113.4C63.17 118.64 58.93 122.88 53.69 122.88C48.45 122.88 44.21 118.64 44.21 113.4C44.21 108.17 48.45 103.92 53.69 103.92ZM92.79 103.92C98.02 103.92 102.27 108.17 102.27 113.4C102.27 118.64 98.02 122.88 92.79 122.88C87.55 122.88 83.31 118.64 83.31 113.4C83.31 108.17 87.55 103.92 92.79 103.92ZM30.8 43.07H45.9L40.42 20.16C35.02 20.16 29.7 20.15 24.49 20.15L26.33 27.01L26.39 27L30.8 43.07ZM48.31 20.17L53.79 43.07H68.33L62.83 20.19L48.31 20.17ZM70.74 20.2L76.24 43.07H90.15L84.67 20.22L70.74 20.2ZM92.58 20.23L98.06 43.08H111.98L113.52 24.72C113.95 19.6 114.85 20.25 109.89 20.25C104.23 20.24 98.44 20.23 92.58 20.23ZM111.49 48.89H99.45L103.42 65.45L104.4 65.32C110.47 64.45 110.07 65.84 110.55 60.11L111.49 48.89ZM95.77 66.5L91.55 48.89H77.65L82.32 68.33L95.77 66.5ZM74.66 69.37L69.73 48.88H55.18L60.55 71.29L74.66 69.37ZM52.9 72.34L47.29 48.89H32.4L39.36 74.19L52.9 72.34Z" fill="#4EB92D"/>
</g>
<defs>
<clipPath id="clip0_6203_5">
<rect width="122.43" height="122.88" fill="white"/>
</clipPath>
</defs>
</svg>
