<svg width="111" height="123" viewBox="0 0 111 123" fill="none" xmlns="http://www.w3.org/2000/svg">
<g clip-path="url(#clip0_6202_2)">
<path d="M48.47 116.35C50.27 116.35 51.74 117.81 51.74 119.61C51.74 121.41 50.28 122.87 48.47 122.87H7.6C5.51 122.87 3.61 122.02 2.23 120.64C0.85 119.27 0 117.38 0 115.28V7.6C0 5.5 0.85 3.61 2.23 2.23C3.61 0.85 5.5 0 7.6 0H100.9C102.99 0 104.89 0.86 106.27 2.23C107.65 3.61 108.5 5.5 108.5 7.6V61.55C108.5 63.35 107.04 64.81 105.24 64.81C103.44 64.81 101.98 63.35 101.98 61.55V7.6C101.98 7.31 101.86 7.04 101.66 6.85C101.46 6.65 101.19 6.53 100.91 6.53H7.6C7.31 6.53 7.04 6.65 6.84 6.84C6.65 7.05 6.53 7.31 6.53 7.6V115.28C6.53 115.57 6.65 115.84 6.85 116.03C7.05 116.23 7.32 116.35 7.61 116.35H48.47ZM33.94 57.92C33.32 56.85 33.77 53.79 35.1 52.71C38.9 50.49 44.14 51.18 47.8 48.62C48.01 48.3 48.24 47.84 48.47 47.33C48.8 46.57 49.11 45.74 49.3 45.17C48.49 44.21 47.79 43.13 47.13 42.07L44.93 38.57C44.13 37.37 43.71 36.27 43.68 35.37C43.67 34.95 43.74 34.56 43.9 34.22C44.06 33.86 44.31 33.57 44.66 33.34C44.82 33.23 45 33.14 45.19 33.07C45.04 31.17 44.99 28.78 45.09 26.77C45.14 26.3 45.23 25.82 45.36 25.34C45.92 23.33 47.33 21.71 49.08 20.6C50.04 19.99 51.1 19.52 52.2 19.21C52.9 19.01 51.6 16.78 52.33 16.7C55.83 16.34 61.48 19.53 63.92 22.17C65.14 23.49 65.91 25.25 66.08 27.57L65.94 33.28C66.55 33.47 66.94 33.85 67.1 34.48C67.28 35.18 67.09 36.15 66.49 37.49C66.48 37.51 66.47 37.54 66.45 37.56L63.94 41.69C63.02 43.21 62.08 44.73 60.86 45.93C60.97 46.09 61.09 46.25 61.2 46.41C61.7 47.14 62.2 47.87 62.84 48.52C62.86 48.54 62.88 48.57 62.89 48.59C65.78 50.63 72.81 51.13 75.51 52.63L75.62 52.69C77.01 53.76 77.44 56.82 76.8 57.89H33.94V57.92ZM102.29 79.04C101.76 78.53 101.15 78.29 100.45 78.3C99.74 78.31 99.14 78.59 98.65 79.11L94.6 83.33L105.97 94.31L110.06 90.05C110.55 89.55 110.75 88.91 110.74 88.21C110.73 87.52 110.48 86.88 109.98 86.41L102.29 79.04ZM84.54 116.17C83.04 116.65 81.54 117.14 80.05 117.63C78.55 118.13 77.05 118.63 75.56 119.13C72.03 120.29 70.05 120.93 69.63 121.05C69.23 121.17 69.46 119.52 70.36 116.06L73.17 105.23L90.99 87.05L102.35 97.98L84.54 116.17ZM31.74 95.36C29.94 95.36 28.47 93.88 28.47 92.05C28.47 90.22 29.93 88.74 31.74 88.74H53.95C55.75 88.74 57.22 90.22 57.22 92.05C57.22 93.88 55.76 95.36 53.95 95.36H31.74ZM31.74 74.67C29.94 74.67 28.48 73.21 28.48 71.4C28.48 69.6 29.94 68.14 31.74 68.14H75.79C77.59 68.14 79.05 69.6 79.05 71.4C79.05 73.2 77.59 74.67 75.79 74.67H31.74Z" fill="#4EB92D"/>
</g>
<defs>
<clipPath id="clip0_6202_2">
<rect width="110.74" height="122.88" fill="white"/>
</clipPath>
</defs>
</svg>
