<svg width="123" height="118" viewBox="0 0 123 118" fill="none" xmlns="http://www.w3.org/2000/svg">
<g clip-path="url(#clip0_3460_10)">
<path d="M64.3952 1.9691L80.1082 38.7591L119.961 42.3341C121.72 42.4861 123.021 44.0351 122.868 45.7931C122.795 46.6501 122.389 47.3971 121.789 47.9221L121.791 47.9231L91.6412 74.2501L100.558 113.271C100.953 114.994 99.8752 116.71 98.1522 117.105C97.2692 117.308 96.3892 117.123 95.6862 116.664L61.4412 96.1911L27.0872 116.73C25.5712 117.636 23.6072 117.142 22.7002 115.626C22.2592 114.89 22.1502 114.046 22.3272 113.271H22.3242L31.2422 74.2501L1.09223 47.9241C-0.236773 46.7611 -0.370773 44.7411 0.791226 43.4121C1.38223 42.7361 2.19623 42.3701 3.02623 42.3251L42.7742 38.7591L58.4952 1.9491C59.1872 0.3221 61.0672 -0.4349 62.6942 0.2571C63.4942 0.5971 64.0842 1.2251 64.3952 1.9691ZM74.9672 43.0231L61.4412 11.3511L47.9142 43.0231L47.9102 43.0221C47.4622 44.0731 46.4632 44.8481 45.2452 44.9541L10.9392 48.0321L36.7582 70.5771C37.7072 71.3171 38.1962 72.5651 37.9102 73.8171L30.2362 107.395L59.7422 89.7541C60.7282 89.1371 62.0162 89.0821 63.0842 89.7211L92.6472 107.395L84.9742 73.8171L84.9772 73.8151C84.7252 72.7061 85.0732 71.4971 85.9892 70.6961L111.944 48.0321L77.8152 44.9701C76.6072 44.9321 75.4722 44.2081 74.9672 43.0231Z" fill="#758AFB"/>
</g>
<defs>
<clipPath id="clip0_3460_10">
<rect width="122.879" height="117.188" fill="white"/>
</clipPath>
</defs>
</svg>
